<svg width="36" height="36" viewBox="0 0 36 36" fill="none" xmlns="http://www.w3.org/2000/svg">
    <path d="M30.2919 7.51395H6.25347C5.67389 7.51395 5.11804 7.74418 4.70822 8.15401C4.29839 8.56384 4.06815 9.11968 4.06815 9.69926V31.5524C4.06568 31.9689 4.18344 32.3773 4.40729 32.7286C4.63114 33.0799 4.95158 33.3591 5.33017 33.5328C5.61948 33.6672 5.9345 33.7371 6.25347 33.7377C6.76648 33.7365 7.26246 33.5536 7.65343 33.2214C7.65995 33.2172 7.66592 33.2121 7.67119 33.2064L12.0582 29.3671H30.2919C30.8715 29.3671 31.4274 29.1369 31.8372 28.727C32.247 28.3172 32.4772 27.7614 32.4772 27.1818V9.69926C32.4772 9.11968 32.247 8.56384 31.8372 8.15401C31.4274 7.74418 30.8715 7.51395 30.2919 7.51395ZM30.2919 27.1818H12.0582C11.5436 27.1815 11.0454 27.3629 10.6514 27.694L10.635 27.709L6.25347 31.5524V9.69926H30.2919V27.1818ZM16.6337 18.4405C16.6337 18.1164 16.7298 17.7995 16.9099 17.5299C17.09 17.2604 17.346 17.0503 17.6455 16.9263C17.945 16.8022 18.2745 16.7698 18.5924 16.833C18.9104 16.8963 19.2024 17.0524 19.4316 17.2816C19.6609 17.5108 19.817 17.8028 19.8802 18.1208C19.9434 18.4387 19.911 18.7682 19.7869 19.0677C19.6629 19.3672 19.4528 19.6232 19.1833 19.8033C18.9137 19.9834 18.5969 20.0795 18.2727 20.0795C17.838 20.0795 17.4211 19.9068 17.1138 19.5995C16.8064 19.2921 16.6337 18.8752 16.6337 18.4405ZM10.6241 18.4405C10.6241 18.1164 10.7202 17.7995 10.9003 17.5299C11.0804 17.2604 11.3364 17.0503 11.6359 16.9263C11.9354 16.8022 12.2649 16.7698 12.5828 16.833C12.9008 16.8963 13.1928 17.0524 13.422 17.2816C13.6512 17.5108 13.8073 17.8028 13.8706 18.1208C13.9338 18.4387 13.9014 18.7682 13.7773 19.0677C13.6533 19.3672 13.4432 19.6232 13.1737 19.8033C12.9041 19.9834 12.5872 20.0795 12.2631 20.0795C11.8284 20.0795 11.4115 19.9068 11.1041 19.5995C10.7968 19.2921 10.6241 18.8752 10.6241 18.4405ZM22.6433 18.4405C22.6433 18.1164 22.7395 17.7995 22.9195 17.5299C23.0996 17.2604 23.3556 17.0503 23.6551 16.9263C23.9546 16.8022 24.2841 16.7698 24.6021 16.833C24.92 16.8963 25.212 17.0524 25.4412 17.2816C25.6705 17.5108 25.8266 17.8028 25.8898 18.1208C25.953 18.4387 25.9206 18.7682 25.7965 19.0677C25.6725 19.3672 25.4624 19.6232 25.1929 19.8033C24.9234 19.9834 24.6065 20.0795 24.2823 20.0795C23.8476 20.0795 23.4307 19.9068 23.1234 19.5995C22.816 19.2921 22.6433 18.8752 22.6433 18.4405Z" fill="#81859C"/>
</svg>
