<svg width="29" height="29" viewBox="0 0 29 29" fill="none" xmlns="http://www.w3.org/2000/svg">
    <path d="M26.4549 12.9523L21.527 17.253L23.0032 23.656C23.0813 23.9907 23.059 24.341 22.9391 24.6632C22.8192 24.9853 22.607 25.2649 22.329 25.4671C22.051 25.6693 21.7196 25.7851 21.3762 25.7999C21.0328 25.8148 20.6927 25.7281 20.3983 25.5507L14.8137 22.1634L9.24116 25.5507C8.94676 25.7281 8.6066 25.8148 8.2632 25.7999C7.9198 25.7851 7.58839 25.6693 7.31042 25.4671C7.03245 25.2649 6.82025 24.9853 6.70034 24.6632C6.58044 24.341 6.55815 23.9907 6.63626 23.656L8.11026 17.2596L3.18128 12.9523C2.92058 12.7275 2.73207 12.4307 2.63938 12.0991C2.5467 11.7676 2.55396 11.416 2.66027 11.0886C2.76658 10.7611 2.96719 10.4724 3.23696 10.2585C3.50672 10.0446 3.83363 9.91515 4.17669 9.88632L10.6736 9.3236L13.2097 3.27465C13.3421 2.95725 13.5655 2.68613 13.8517 2.49543C14.1379 2.30473 14.4742 2.20297 14.8181 2.20297C15.162 2.20297 15.4982 2.30473 15.7844 2.49543C16.0706 2.68613 16.294 2.95725 16.4265 3.27465L18.9702 9.3236L25.4649 9.88632C25.808 9.91515 26.1349 10.0446 26.4047 10.2585C26.6744 10.4724 26.875 10.7611 26.9814 11.0886C27.0877 11.416 27.0949 11.7676 27.0022 12.0991C26.9096 12.4307 26.721 12.7275 26.4603 12.9523H26.4549Z" fill="#363842"/>
</svg>
